<?xml version="1.0" encoding="UTF-8" standalone="no"?>
<svg
   xmlns:dc="http://purl.org/dc/elements/1.1/"
   xmlns:cc="http://creativecommons.org/ns#"
   xmlns:rdf="http://www.w3.org/1999/02/22-rdf-syntax-ns#"
   xmlns:svg="http://www.w3.org/2000/svg"
   xmlns="http://www.w3.org/2000/svg"
   xmlns:sodipodi="http://sodipodi.sourceforge.net/DTD/sodipodi-0.dtd"
   xmlns:inkscape="http://www.inkscape.org/namespaces/inkscape"
   id="svg870"
   version="1.1"
   viewBox="0 0 163.18218 11.11231"
   height="41.999283"
   width="616.75153"
   sodipodi:docname="hmi-lab.svg"
   inkscape:version="0.92.4 (5da689c313, 2019-01-14)">
  <sodipodi:namedview
     pagecolor="#ffffff"
     bordercolor="#666666"
     borderopacity="1"
     objecttolerance="10"
     gridtolerance="10"
     guidetolerance="10"
     inkscape:pageopacity="0"
     inkscape:pageshadow="2"
     inkscape:window-width="2400"
     inkscape:window-height="1271"
     id="namedview9"
     showgrid="false"
     inkscape:zoom="3.3019254"
     inkscape:cx="279.14908"
     inkscape:cy="11.284809"
     inkscape:window-x="-9"
     inkscape:window-y="-9"
     inkscape:window-maximized="1"
     inkscape:current-layer="svg870" />
  <title
     id="title1436">HMI Lab Logo</title>
  <defs
     id="defs864" />
  <metadata
     id="metadata867">
    <rdf:RDF>
      <cc:Work
         rdf:about="">
        <dc:format>image/svg+xml</dc:format>
        <dc:type
           rdf:resource="http://purl.org/dc/dcmitype/StillImage" />
        <dc:title>HMI Lab Logo</dc:title>
      </cc:Work>
    </rdf:RDF>
  </metadata>
  <g
     transform="matrix(0.54109965,0,0,0.54109965,194.51338,-126.01276)"
     id="layer1">
    <path
       id="path492"
       d="m -359.47793,250.72568 c 0,-0.0371 0.0396,-0.0371 0.0396,-0.0371 h 0.53081 c 0,0 0.0371,0 0.0371,0.0371 v 2.61703 c 0,0.0394 -0.0371,0.0394 -0.0371,0.0394 h -0.53081 c 0,0 -0.0396,0 -0.0396,-0.0394 z m 1.66897,0 c 0,-0.0371 0.0396,-0.0371 0.0396,-0.0371 h 0.49131 c 0.0396,0 0.0396,0 0.0765,0.0371 l 0.94806,1.70847 h 0.0371 v -1.70847 c 0,-0.0371 0,-0.0371 0.0396,-0.0371 h 0.45428 c 0,0 0.0371,0 0.0371,0.0371 v 2.61703 c 0,0.0394 -0.0371,0.0394 -0.0371,0.0394 h -0.49379 c -0.0371,0 -0.0371,0 -0.074,-0.0394 l -0.94806,-1.70602 h -0.0396 v 1.70602 c 0,0.0394 0,0.0394 -0.0371,0.0394 h -0.45428 c 0,0 -0.0396,0 -0.0396,-0.0394 z m 4.09591,2.69357 c -0.11359,0 -0.19011,0 -0.30368,-0.0371 -0.11359,0 -0.19011,-0.0394 -0.30367,-0.0765 -0.074,-0.0371 -0.15068,-0.0765 -0.22715,-0.11358 -0.0765,-0.0396 -0.15067,-0.0765 -0.1901,-0.15301 -0.0371,0 -0.0371,-0.0371 0,-0.0371 l 0.30367,-0.38022 h 0.0396 c 0.11359,0.0765 0.18763,0.15301 0.3012,0.19011 0.153,0.0765 0.26665,0.11359 0.41725,0.11359 0.153,0 0.26664,-0.0371 0.34318,-0.11359 0.074,-0.0371 0.11359,-0.11359 0.11359,-0.22714 0,-0.0765 -0.0396,-0.15067 -0.11359,-0.19011 -0.0394,-0.0371 -0.153,-0.074 -0.30368,-0.11359 h -0.153 c -0.30368,-0.0371 -0.49131,-0.15067 -0.64439,-0.26417 -0.15067,-0.11358 -0.22713,-0.30367 -0.22713,-0.57032 0,-0.11358 0.0371,-0.22714 0.0765,-0.34071 0.0371,-0.0765 0.11358,-0.19009 0.1901,-0.26664 0.074,-0.0371 0.18764,-0.11359 0.30121,-0.15067 0.11609,-0.0371 0.26664,-0.0765 0.38021,-0.0765 0.19011,0 0.38022,0.0396 0.53082,0.0765 0.153,0.0765 0.30368,0.15067 0.41724,0.22715 v 0.0394 l -0.22713,0.37774 c -0.0371,0.0396 -0.0371,0.0396 -0.0765,0 -0.11359,-0.0371 -0.19011,-0.11359 -0.30368,-0.15068 -0.11359,-0.0394 -0.22714,-0.0394 -0.34071,-0.0394 -0.11359,0 -0.19011,0.0394 -0.26417,0.0765 -0.0396,0.0765 -0.0765,0.11359 -0.0765,0.22714 0,0.0765 0.0371,0.11359 0.0765,0.19011 0.074,0.0371 0.18763,0.0765 0.34071,0.11359 h 0.15067 c 0.26664,0.0371 0.49378,0.11358 0.64438,0.26664 0.11359,0.11359 0.19009,0.30368 0.19009,0.56785 0,0.11359 0,0.22714 -0.0371,0.34071 -0.0765,0.0765 -0.11359,0.1901 -0.22712,0.26664 -0.0765,0.0765 -0.19013,0.11359 -0.34319,0.15068 -0.11358,0.0765 -0.26417,0.0765 -0.45427,0.0765 z m 2.57999,-0.0371 c -0.0396,0 -0.0396,0 -0.0396,-0.0394 v -2.16028 h -0.72092 c 0,0 -0.0371,0 -0.0371,-0.0396 v -0.41725 c 0,-0.0371 0.0371,-0.0371 0.0371,-0.0371 h 2.00969 c 0.0396,0 0.0396,0 0.0396,0.0371 v 0.41725 c 0,0.0396 0,0.0396 -0.0396,0.0396 h -0.68142 v 2.16028 c 0,0.0394 -0.0371,0.0394 -0.0371,0.0394 z m 2.19732,-2.65654 c 0,-0.0371 0,-0.0371 0.0396,-0.0371 h 0.49131 c 0.0396,0 0.0396,0 0.0396,0.0371 v 2.61703 c 0,0.0394 0,0.0394 -0.0396,0.0394 h -0.49131 c -0.0396,0 -0.0396,0 -0.0396,-0.0394 z m 2.27632,2.65654 c -0.0371,0 -0.0371,0 -0.0371,-0.0394 v -2.12325 c 0,0 0,-0.0371 -0.0394,-0.0371 h -0.68142 c -0.0394,0 -0.0394,0 -0.0394,-0.0396 v -0.41725 c 0,-0.0371 0,-0.0371 0.0394,-0.0371 h 2.00969 c 0.0371,0 0.0371,0 0.0371,0.0371 v 0.41725 c 0,0.0396 0,0.0396 -0.0371,0.0396 h -0.68389 c -0.0371,0 -0.0371,0.0371 -0.0371,0.0371 v 2.12325 c 0,0.0394 0,0.0394 -0.0371,0.0394 z m 3.22438,0.0371 c -0.153,0 -0.30367,0 -0.41724,-0.0765 -0.15301,-0.0371 -0.26665,-0.11359 -0.34317,-0.19011 -0.074,-0.074 -0.15067,-0.18763 -0.22714,-0.3012 -0.0371,-0.153 -0.074,-0.30368 -0.074,-0.45675 v -1.66897 c 0,-0.0371 0.0371,-0.0371 0.0371,-0.0371 h 0.53081 c 0,0 0.0371,0 0.0371,0.0371 v 1.66897 c 0,0.153 0.0396,0.30367 0.11358,0.38021 0.0765,0.0765 0.19011,0.11359 0.34319,0.11359 0.11359,0 0.22714,-0.0371 0.30366,-0.11359 0.074,-0.0765 0.15067,-0.22714 0.15067,-0.38021 v -1.66897 c 0,-0.0371 0,-0.0371 0.0371,-0.0371 h 0.49376 c 0.0371,0 0.0371,0 0.0371,0.0371 v 1.66897 c 0,0.153 -0.0371,0.30367 -0.074,0.45675 -0.0394,0.11358 -0.11358,0.22714 -0.22961,0.3012 -0.074,0.0765 -0.18763,0.153 -0.3012,0.19011 -0.153,0.0765 -0.26665,0.0765 -0.41725,0.0765 z m 2.69109,-0.0371 c -0.0371,0 -0.0371,0 -0.0371,-0.0394 v -2.12325 c 0,0 0,-0.0371 -0.0394,-0.0371 h -0.68139 c 0,0 -0.0371,0 -0.0371,-0.0396 v -0.41725 c 0,-0.0371 0.0371,-0.0371 0.0371,-0.0371 h 2.00967 c 0.0371,0 0.0371,0 0.0371,0.0371 v 0.41725 c 0,0.0396 0,0.0396 -0.0371,0.0396 h -0.68142 l -0.0396,0.0371 v 2.12325 c 0,0.0394 0,0.0394 -0.0371,0.0394 z m 3.7157,-2.65654 c 0,-0.0371 0,-0.0371 0.0394,-0.0371 h 1.706 c 0.0371,0 0.0371,0 0.0371,0.0371 v 0.41725 c 0,0.0396 0,0.0396 -0.0371,0.0396 h -1.13815 c -0.0371,0 -0.0371,0 -0.0371,0.0371 v 0.56783 c 0,0 0,0 0.0371,0 h 0.94807 c 0.0396,0 0.0396,0.0396 0.0396,0.0396 v 0.41725 c 0,0.0371 0,0.0371 -0.0396,0.0371 h -0.94807 c -0.0371,0 -0.0371,0.0394 -0.0371,0.0394 v 1.02213 c 0,0.0394 0,0.0394 -0.0371,0.0394 h -0.49378 c -0.0394,0 -0.0394,0 -0.0394,-0.0394 z m 3.7552,2.69357 c -0.22714,0 -0.41725,-0.0371 -0.60735,-0.15068 -0.18764,-0.11609 -0.30368,-0.26664 -0.37774,-0.49378 0,-0.0396 -0.0396,-0.11359 -0.0396,-0.153 0,-0.0371 0,-0.074 0,-0.15068 -0.0371,-0.0371 -0.0371,-0.11358 -0.0371,-0.1901 0,-0.0765 0,-0.15068 0,-0.26416 0,-0.0765 0,-0.19012 0,-0.26664 0,-0.0371 0,-0.11359 0.0371,-0.19011 0,-0.0371 0,-0.074 0,-0.15067 0,-0.0371 0.0396,-0.0765 0.0396,-0.11359 0.074,-0.22714 0.1901,-0.38021 0.37774,-0.49379 0.1901,-0.11358 0.38021,-0.1901 0.60735,-0.1901 0.22714,0 0.45428,0.0765 0.64437,0.1901 0.153,0.11359 0.26664,0.26665 0.34071,0.49379 0.0396,0.0371 0.0396,0.0765 0.0396,0.11359 0.0371,0.0765 0.0371,0.11358 0.0371,0.15067 0,0.0765 0,0.153 0,0.19011 0,0.0765 0,0.19009 0,0.26664 0,0.11359 0,0.18762 0,0.26416 0,0.0765 0,0.153 0,0.1901 0,0.0765 0,0.11359 -0.0371,0.15068 0,0.0396 0,0.11359 -0.0396,0.153 -0.074,0.22714 -0.18764,0.37774 -0.34071,0.49378 -0.19009,0.11359 -0.41723,0.15068 -0.64437,0.15068 z m 0,-0.53082 c 0.11359,0 0.22714,0 0.26664,-0.0765 0.074,-0.0371 0.15068,-0.11359 0.15068,-0.19011 0.0371,-0.0371 0.0371,-0.074 0.0371,-0.11358 0,0 0,-0.0371 0,-0.074 0,-0.0765 0.0394,-0.11359 0.0394,-0.19011 0,-0.0396 0,-0.11358 0,-0.22712 0,-0.0765 0,-0.153 0,-0.22963 0,-0.0371 -0.0394,-0.11358 -0.0394,-0.15067 0,-0.0371 0,-0.0765 0,-0.11359 0,-0.0371 0,-0.0371 -0.0371,-0.0765 0,-0.074 -0.0765,-0.15067 -0.15068,-0.22714 -0.0396,-0.0371 -0.153,-0.0765 -0.26664,-0.0765 -0.11359,0 -0.19011,0.0396 -0.26417,0.0765 -0.0765,0.0765 -0.11359,0.153 -0.153,0.22714 0,0.0394 0,0.0394 -0.0371,0.0765 0,0.0371 0,0.0765 0,0.11359 0,0.0371 0,0.11359 0,0.15067 0,0.0765 0,0.15301 0,0.22963 0,0.11359 0,0.18762 0,0.22712 0,0.0765 0,0.11359 0,0.19011 0,0.0371 0,0.074 0,0.074 0.0371,0.0394 0.0371,0.0765 0.0371,0.11358 0.0394,0.0765 0.0765,0.15301 0.153,0.19011 0.074,0.0765 0.15067,0.0765 0.26417,0.0765 z m 3.60211,0.49379 c -0.0371,0 -0.074,0 -0.074,-0.0394 l -0.45673,-0.98509 h -0.37774 v 0.98509 c 0,0.0394 -0.0396,0.0394 -0.0765,0.0394 h -0.49389 c -0.0371,0 -0.0371,0 -0.0371,-0.0394 v -2.61703 c 0,-0.0371 0,-0.0371 0.0371,-0.0371 h 1.10111 c 0.11359,0 0.26418,0 0.37775,0.0371 0.0765,0.0396 0.1901,0.11359 0.26664,0.19011 0.0765,0.0765 0.15067,0.153 0.19011,0.26664 0.0371,0.11359 0.074,0.22714 0.074,0.34071 0,0.15067 -0.0371,0.30366 -0.15067,0.45428 -0.0765,0.11359 -0.19011,0.22712 -0.34071,0.30366 l 0.53081,1.06163 c 0,0 0,0 0,0.0394 0,0 0,0 -0.0394,0 z m -0.41723,-1.51837 c 0.11359,0 0.19009,-0.0371 0.26664,-0.11359 0.0765,-0.0371 0.0765,-0.15067 0.0765,-0.22714 0,-0.11358 0,-0.1901 -0.0765,-0.26664 -0.0765,-0.0371 -0.153,-0.074 -0.26664,-0.074 h -0.49131 c 0,0 0,0 0,0.0371 v 0.64439 z m 4.20946,-1.13817 c 0,-0.0371 0,-0.0371 0.0396,-0.0371 h 0.49131 c 0.0394,0 0.0394,0 0.0394,0.0371 l 0.94806,2.61703 c 0,0.0394 0,0.0394 -0.0396,0.0394 h -0.53081 c 0,0 -0.0371,0 -0.0371,-0.0394 l -0.15067,-0.49131 h -0.94806 l -0.153,0.49131 c 0,0.0394 -0.0371,0.0394 -0.0765,0.0394 h -0.49132 c -0.0396,0 -0.0396,0 -0.0396,-0.0394 z m 0.60735,1.63193 -0.30367,-0.94804 h -0.0371 l -0.30366,0.94804 z m 3.26141,1.02461 c 0,0 -0.0371,0 -0.0371,-0.0394 l -0.45675,-0.98509 h -0.4172 v 0.98509 c 0,0.0394 0,0.0394 -0.0371,0.0394 h -0.49378 c -0.0371,0 -0.0371,0 -0.0371,-0.0394 v -2.61703 c 0,-0.0371 0,-0.0371 0.0371,-0.0371 h 1.06164 c 0.153,0 0.26663,0 0.38021,0.0371 0.11358,0.0396 0.22714,0.11359 0.30367,0.19011 0.0765,0.0765 0.15068,0.153 0.19011,0.26664 0.0371,0.11359 0.074,0.22714 0.074,0.34071 0,0.15067 -0.0371,0.30366 -0.15067,0.45428 -0.0765,0.11359 -0.19011,0.22712 -0.34071,0.30366 l 0.53082,1.06163 c 0,0 0,0 0,0.0394 0,0 0,0 -0.0396,0 z m -0.38021,-1.51837 c 0.11611,0 0.19012,-0.0371 0.26665,-0.11359 0.0371,-0.0371 0.0765,-0.15067 0.0765,-0.22714 0,-0.11358 -0.0396,-0.1901 -0.0765,-0.26664 -0.0765,-0.0371 -0.15068,-0.074 -0.26665,-0.074 h -0.49131 c 0,0 -0.0396,0 -0.0396,0.0371 v 0.60734 l 0.0396,0.0371 z m 1.93561,-1.13817 c 0,-0.0371 0.0371,-0.0371 0.0371,-0.0371 h 0.5308 c 0.0394,0 0.0394,0 0.0394,0.0371 v 1.17766 l 0.90856,-1.17766 c 0,-0.0371 0.0396,-0.0371 0.0396,-0.0371 h 0.60487 v 0.0371 l -0.83448,1.0246 0.91102,1.59243 c 0.0371,0.0394 0,0.0394 -0.0371,0.0394 h -0.57032 c -0.0371,0 -0.0371,0 -0.074,-0.0394 l -0.60736,-1.13817 -0.3407,0.45675 v 0.68142 c 0,0.0394 0,0.0394 -0.0394,0.0394 h -0.53082 c 0,0 -0.0371,0 -0.0371,-0.0394 z m 3.14786,0 c 0,-0.0371 0.0371,-0.0371 0.0371,-0.0371 h 0.53082 c 0,0 0.0371,0 0.0371,0.0371 v 2.61703 c 0,0.0394 -0.0371,0.0394 -0.0371,0.0394 h -0.53082 c 0,0 -0.0371,0 -0.0371,-0.0394 z m 2.27384,2.65654 c -0.0371,0 -0.0371,0 -0.0371,-0.0394 v -2.12325 c 0,0 0,-0.0371 -0.0371,-0.0371 h -0.68387 c 0,0 -0.0371,0 -0.0371,-0.0396 v -0.41725 c 0,-0.0371 0.0371,-0.0371 0.0371,-0.0371 h 2.00967 c 0.0396,0 0.0396,0 0.0396,0.0371 v 0.41725 c 0,0.0396 0,0.0396 -0.0396,0.0396 h -0.68141 l -0.0394,0.0371 v 2.12325 c 0,0.0394 0,0.0394 -0.0371,0.0394 z m 2.19978,-2.65654 c 0,-0.0371 0,-0.0371 0.0394,-0.0371 h 1.74304 c 0,0 0.0371,0 0.0371,0.0371 v 0.41725 c 0,0.0396 -0.0371,0.0396 -0.0371,0.0396 h -1.17521 c -0.0371,0 -0.0371,0 -0.0371,0.0371 v 0.53079 c 0,0 0,0 0.0371,0 h 0.9851 l 0.0394,0.0371 v 0.45675 l -0.0394,0.0371 h -0.9851 c -0.0371,0 -0.0371,0 -0.0371,0 v 0.57032 c 0,0 0,0.0371 0.0371,0.0371 h 1.17521 c 0,0 0.0371,0 0.0371,0.0371 v 0.41725 c 0,0.0396 -0.0371,0.0396 -0.0371,0.0396 h -1.74304 c -0.0394,0 -0.0394,0 -0.0394,-0.0396 z m 2.80715,0 c 0,-0.0371 0.0371,-0.0371 0.0371,-0.0371 h 0.53084 c 0,0 0.0394,0 0.0394,0.0371 v 1.17766 l 0.8715,-1.17766 c 0.0371,-0.0371 0.0371,-0.0371 0.0765,-0.0371 h 0.56785 c 0.0371,0 0.0371,0 0.0371,0 v 0.0371 l -0.83447,1.0246 0.91101,1.59243 c 0,0.0394 0,0.0394 -0.0371,0.0394 h -0.57032 c -0.0371,0 -0.0371,0 -0.074,-0.0394 l -0.60734,-1.13817 -0.34072,0.45675 v 0.68142 c 0,0.0394 -0.0394,0.0394 -0.0394,0.0394 h -0.53082 c 0,0 -0.0371,0 -0.0371,-0.0394 z m 3.75273,2.65654 c -0.0371,0 -0.0371,0 -0.0371,-0.0394 v -2.12325 l -0.0371,-0.0371 h -0.68388 c -0.0371,0 -0.0371,0 -0.0371,-0.0396 v -0.41725 c 0,-0.0371 0,-0.0371 0.0371,-0.0371 h 2.00966 c 0,0 0.0394,0 0.0394,0.0371 v 0.41725 c 0,0.0396 -0.0394,0.0396 -0.0394,0.0396 h -0.68141 c -0.0394,0 -0.0394,0.0371 -0.0394,0.0371 v 2.12325 c 0,0.0394 0,0.0394 -0.0371,0.0394 z m 3.22438,0.0371 c -0.15069,0 -0.30369,0 -0.41727,-0.0765 -0.15067,-0.0371 -0.26416,-0.11359 -0.3407,-0.19011 -0.11359,-0.074 -0.153,-0.18763 -0.22715,-0.3012 -0.0394,-0.153 -0.0765,-0.30368 -0.0765,-0.45675 v -1.66897 c 0,-0.0371 0,-0.0371 0.0371,-0.0371 h 0.53082 c 0,0 0.0394,0 0.0394,0.0371 v 1.66897 c 0,0.153 0.0371,0.30367 0.11357,0.38021 0.0765,0.0765 0.19011,0.11359 0.34072,0.11359 0.11359,0 0.22713,-0.0371 0.30367,-0.11359 0.0765,-0.0765 0.11359,-0.22714 0.11359,-0.38021 v -1.66897 c 0,-0.0371 0.0371,-0.0371 0.0371,-0.0371 h 0.53079 c 0,0 0.0394,0 0.0394,0.0371 v 1.66897 c 0,0.153 -0.0394,0.30367 -0.0765,0.45675 -0.0765,0.11358 -0.11358,0.22714 -0.22714,0.3012 -0.0765,0.0765 -0.1901,0.153 -0.30367,0.19011 -0.15069,0.0765 -0.26665,0.0765 -0.41725,0.0765 z m 3.60211,-0.0371 c -0.0371,0 -0.074,0 -0.074,-0.0394 l -0.45675,-0.98509 h -0.37775 v 0.98509 c 0,0.0394 -0.0394,0.0394 -0.0394,0.0394 h -0.5308 c 0,0 -0.0371,0 -0.0371,-0.0394 v -2.61703 c 0,-0.0371 0.0371,-0.0371 0.0371,-0.0371 h 1.10113 c 0.11359,0 0.26418,0 0.37774,0.0371 0.11358,0.0396 0.19011,0.11359 0.26664,0.19011 0.074,0.0765 0.15068,0.153 0.19011,0.26664 0.0371,0.11359 0.074,0.22714 0.074,0.34071 0,0.15067 -0.0371,0.30366 -0.11359,0.45428 -0.11359,0.11359 -0.22714,0.22712 -0.37775,0.30366 l 0.5308,1.06163 c 0,0 0,0 0,0.0394 z m -0.41724,-1.51837 c 0.11359,0 0.19009,-0.0371 0.26663,-0.11359 0.0765,-0.0371 0.11359,-0.15067 0.11359,-0.22714 0,-0.11358 -0.0371,-0.1901 -0.11359,-0.26664 -0.0765,-0.0371 -0.15298,-0.074 -0.26663,-0.074 h -0.49132 c 0,0 0,0 0,0.0371 v 0.64439 z m 4.4761,1.5554 c -0.26663,0 -0.45674,-0.0371 -0.64437,-0.15068 -0.153,-0.11609 -0.30368,-0.26664 -0.34318,-0.49378 -0.0371,-0.0396 -0.0371,-0.11359 -0.0371,-0.153 -0.0371,-0.0371 -0.0371,-0.074 -0.0371,-0.15068 0,-0.0371 0,-0.11358 0,-0.1901 0,-0.0765 0,-0.15068 0,-0.26416 0,-0.0765 0,-0.19012 0,-0.26664 0,-0.0371 0,-0.11359 0,-0.19011 0,-0.0371 0,-0.074 0.0371,-0.15067 0,-0.0371 0,-0.0765 0.0371,-0.11359 0.0394,-0.22714 0.19012,-0.38021 0.34318,-0.49379 0.18763,-0.11358 0.37774,-0.1901 0.64437,-0.1901 0.22714,0 0.41725,0.0765 0.60735,0.1901 0.18762,0.11359 0.30119,0.26665 0.37774,0.49379 0,0.0371 0,0.0765 0.0371,0.11359 0,0.0765 0,0.11358 0,0.15067 0,0.0765 0,0.153 0.0394,0.19011 0,0.0765 0,0.19009 0,0.26664 0,0.11359 0,0.18762 0,0.26416 -0.0394,0.0765 -0.0394,0.153 -0.0394,0.1901 0,0.0765 0,0.11359 0,0.15068 -0.0371,0.0396 -0.0371,0.11359 -0.0371,0.153 -0.0765,0.22714 -0.19012,0.37774 -0.37774,0.49378 -0.1901,0.11359 -0.38021,0.15068 -0.60735,0.15068 z m 0,-0.53082 c 0.11358,0 0.1901,0 0.26417,-0.0765 0.0765,-0.0371 0.11357,-0.11359 0.153,-0.19011 0,-0.0371 0,-0.074 0,-0.11358 0,0 0.0371,-0.0371 0.0371,-0.074 0,-0.0765 0,-0.11359 0,-0.19011 0,-0.0396 0,-0.11358 0,-0.22712 0,-0.0765 0,-0.153 0,-0.22963 0,-0.0371 0,-0.11358 0,-0.15067 0,-0.0371 -0.0371,-0.0765 -0.0371,-0.11359 0,-0.0371 0,-0.0371 0,-0.0765 -0.0394,-0.074 -0.0765,-0.15067 -0.153,-0.22714 -0.074,-0.0371 -0.15067,-0.0765 -0.26417,-0.0765 -0.11358,0 -0.22714,0.0396 -0.30368,0.0765 -0.0765,0.0765 -0.11359,0.153 -0.153,0.22714 0,0.0394 0,0.0394 0,0.0765 0,0.0371 0,0.0765 -0.0371,0.11359 0,0.0371 0,0.11359 0,0.15067 0,0.0765 0,0.15301 0,0.22963 0,0.11359 0,0.18762 0,0.22712 0,0.0765 0,0.11359 0,0.19011 0.0371,0.0371 0.0371,0.074 0.0371,0.074 0,0.0394 0,0.0765 0,0.11358 0.0394,0.0765 0.0765,0.15301 0.153,0.19011 0.0765,0.0765 0.19011,0.0765 0.30368,0.0765 z m 2.08624,-0.11359 c -0.0394,-0.0396 -0.0394,-0.11359 -0.0394,-0.153 -0.0371,-0.0371 -0.0371,-0.074 -0.0371,-0.15067 0,-0.0371 0,-0.11359 0,-0.19011 0,-0.0765 0,-0.15068 0,-0.26416 0,-0.0765 0,-0.19012 0,-0.26664 0,-0.0371 0,-0.11358 0,-0.19011 0,-0.0371 0,-0.074 0.0371,-0.15067 0,-0.0371 0,-0.0765 0.0394,-0.11359 0.0371,-0.22714 0.18764,-0.38021 0.34069,-0.49378 0.1901,-0.11359 0.37775,-0.19011 0.64438,-0.19011 0.11358,0 0.22714,0.0396 0.3407,0.0765 0.11359,0 0.19011,0.0371 0.26665,0.11359 0.074,0.0371 0.15067,0.11359 0.22714,0.19011 0.0371,0.0371 0.0765,0.15067 0.1136,0.22714 0.0371,0 0,0.0371 0,0.0371 l -0.41726,0.19011 c -0.0371,0 -0.0765,0 -0.0765,-0.0371 -0.0371,-0.0765 -0.11359,-0.153 -0.19011,-0.1901 -0.074,-0.0371 -0.15067,-0.0765 -0.26416,-0.0765 -0.11359,0 -0.22715,0.0396 -0.30369,0.0765 -0.0765,0.0765 -0.11359,0.153 -0.15067,0.22714 0,0.0394 0,0.0394 0,0.0765 0,0.0371 0,0.0765 -0.0394,0.11359 0,0.0371 0,0.11358 0,0.15067 0,0.0765 0,0.153 0,0.22963 0,0.11359 0,0.18762 0,0.22712 0,0.0765 0,0.11359 0,0.19011 0.0394,0.0371 0.0394,0.074 0.0394,0.074 0,0.0394 0,0.0765 0,0.11359 0.0371,0.0765 0.074,0.153 0.15067,0.19011 0.0765,0.0765 0.19011,0.0765 0.30369,0.0765 0.11358,0 0.19011,0 0.26416,-0.0371 0.0765,-0.0765 0.153,-0.1161 0.153,-0.22961 0.0371,-0.0371 0.0371,-0.074 0.0371,-0.11359 0,-0.0371 0,-0.074 0,-0.15067 v -0.0371 h -0.37774 c -0.0394,0 -0.0394,0 -0.0394,-0.0396 v -0.37774 c 0,0 0,-0.0396 0.0394,-0.0396 h 0.94806 l 0.0371,0.0396 V 252.13 c 0,0.11358 -0.0371,0.22713 -0.0371,0.34071 0,0.11358 -0.0394,0.1901 -0.0394,0.26417 -0.074,0.22961 -0.1901,0.38021 -0.37773,0.53327 -0.15301,0.11358 -0.38022,0.15067 -0.60736,0.15067 -0.26665,0 -0.45428,-0.0371 -0.64438,-0.15067 -0.153,-0.1161 -0.30368,-0.26663 -0.34072,-0.49377 z m 4.55016,-2.04918 c 0,-0.0371 0.0371,-0.0371 0.0371,-0.0371 h 0.49378 c 0.0371,0 0.0371,0 0.0371,0.0371 l 0.68388,1.51837 h 0.0371 l 0.6814,-1.51837 c 0,-0.0371 0,-0.0371 0.0394,-0.0371 h 0.49379 c 0,0 0.0371,0 0.0371,0.0371 v 2.61703 c 0,0.0394 -0.0371,0.0394 -0.0371,0.0394 h -0.45673 c -0.0371,0 -0.0371,0 -0.0371,-0.0394 v -1.51591 h -0.0394 l -0.49131,1.13817 c 0,0.0371 -0.0394,0.0371 -0.0765,0.0371 h -0.26417 c -0.0394,0 -0.0765,0 -0.0765,-0.0371 l -0.49376,-1.13817 h -0.0371 v 1.51591 c 0,0.0394 0,0.0394 -0.0394,0.0394 h -0.45428 c 0,0 -0.0371,0 -0.0371,-0.0394 z m 3.60212,0 c 0,-0.0371 0.0371,-0.0371 0.0371,-0.0371 h 1.74552 c 0.0371,0 0.0371,0 0.0371,0.0371 v 0.41725 c 0,0.0396 0,0.0396 -0.0371,0.0396 h -1.1752 c 0,0 0,0 0,0.0371 v 0.53079 h 0.98511 c 0.0371,0 0.0371,0.0371 0.0371,0.0371 v 0.45676 c 0,0 0,0.0371 -0.0371,0.0371 h -0.98511 v 0.60735 h 1.1752 c 0.0371,0 0.0371,0 0.0371,0.0371 v 0.41725 c 0,0.0394 0,0.0394 -0.0371,0.0394 h -1.74552 c 0,0 -0.0371,0 -0.0371,-0.0394 z m 2.84418,0 c 0,-0.0371 0,-0.0371 0.0371,-0.0371 h 0.98757 c 0.26418,0 0.45424,0.0371 0.60487,0.15067 0.153,0.0765 0.26664,0.22961 0.34317,0.45675 0,0.0371 0.0371,0.0765 0.0371,0.11359 0,0.0371 0,0.0765 0,0.15067 0.0371,0.0396 0.0371,0.11359 0.0371,0.19011 0,0.0765 0,0.153 0,0.26664 0,0.11359 0,0.22712 0,0.30366 0,0.074 0,0.15068 -0.0371,0.18764 0,0.0394 0,0.11358 0,0.153 0,0.0371 -0.0371,0.074 -0.0371,0.11359 -0.0765,0.1901 -0.19011,0.34071 -0.34317,0.45428 -0.15069,0.11358 -0.34069,0.153 -0.60487,0.153 h -0.98757 c -0.0371,0 -0.0371,0 -0.0371,-0.0394 z m 0.56784,2.12572 c 0,0 0,0 0.0394,0 h 0.30366 c 0.1136,0 0.22714,0 0.30119,-0.0396 0.11609,-0.0765 0.153,-0.15068 0.19013,-0.26418 0,0 0,-0.0394 0.0394,-0.0394 0,-0.0371 0,-0.074 0,-0.11359 0,-0.0371 0,-0.074 0,-0.15067 0,-0.0396 0,-0.11359 0,-0.22712 0,-0.0765 0,-0.15301 0,-0.22963 0,-0.0371 0,-0.074 0,-0.11359 0,-0.0371 0,-0.074 0,-0.11359 -0.0394,-0.0371 -0.0394,-0.0371 -0.0394,-0.074 -0.0371,-0.11359 -0.074,-0.19009 -0.19013,-0.2296 -0.074,-0.0371 -0.18762,-0.074 -0.30119,-0.074 h -0.30366 c -0.0394,0 -0.0394,0 -0.0394,0.0371 z m 2.50346,-2.12572 c 0,-0.0371 0,-0.0371 0.0371,-0.0371 h 0.49377 c 0.0394,0 0.0394,0 0.0394,0.0371 v 2.61703 c 0,0.0394 0,0.0394 -0.0394,0.0394 h -0.49377 c -0.0371,0 -0.0371,0 -0.0371,-0.0394 z m 1.66898,0 c 0,-0.0371 0,-0.0371 0.0371,-0.0371 h 1.74553 c 0,0 0.0371,0 0.0371,0.0371 v 0.41725 c 0,0.0396 -0.0371,0.0396 -0.0371,0.0396 h -1.17521 c 0,0 -0.0394,0 -0.0394,0.0371 v 0.53079 h 1.0246 l 0.0371,0.0371 v 0.45676 l -0.0371,0.0371 h -1.0246 v 0.57032 l 0.0394,0.0371 h 1.17521 c 0,0 0.0371,0 0.0371,0.0371 v 0.41725 c 0,0.0396 -0.0371,0.0396 -0.0371,0.0396 h -1.74553 c -0.0371,0 -0.0371,0 -0.0371,-0.0396 z m 3.41202,2.65654 c -0.0371,0 -0.0371,0 -0.0371,-0.0394 v -2.12325 c 0,0 0,-0.0371 -0.0371,-0.0371 h -0.68388 c 0,0 -0.0371,0 -0.0371,-0.0396 v -0.41724 c 0,-0.0371 0.0371,-0.0371 0.0371,-0.0371 h 2.00966 c 0.0394,0 0.0394,0 0.0394,0.0371 v 0.41724 c 0,0.0396 0,0.0396 -0.0394,0.0396 h -0.68141 l -0.0394,0.0371 v 2.12325 c 0,0.0394 0,0.0394 -0.0371,0.0394 z m 2.19979,-2.65654 c 0,-0.0371 0,-0.0371 0.0394,-0.0371 h 1.74303 c 0,0 0.0394,0 0.0394,0.0371 v 0.41725 c 0,0.0396 -0.0394,0.0396 -0.0394,0.0396 h -1.17518 c -0.0371,0 -0.0371,0 -0.0371,0.0371 v 0.53079 c 0,0 0,0 0.0371,0 h 0.9851 l 0.0394,0.0371 v 0.45676 l -0.0394,0.0371 h -0.9851 c -0.0371,0 -0.0371,0 -0.0371,0 v 0.57032 c 0,0 0,0.0371 0.0371,0.0371 h 1.17518 c 0,0 0.0394,0 0.0394,0.0371 v 0.41725 c 0,0.0396 -0.0394,0.0396 -0.0394,0.0396 h -1.74303 c -0.0394,0 -0.0394,0 -0.0394,-0.0396 z m 2.80712,0 c 0,-0.0371 0.0371,-0.0371 0.0371,-0.0371 h 0.5308 c 0,0 0.0394,0 0.0394,0.0371 v 1.17766 l 0.87152,-1.17766 c 0.0371,-0.0371 0.0371,-0.0371 0.0765,-0.0371 h 0.56785 c 0.0371,0 0.0371,0 0.0371,0 v 0.0371 l -0.83449,1.0246 0.91103,1.59243 c 0,0.0394 0,0.0394 -0.0371,0.0394 h -0.5703 c -0.0371,0 -0.074,0 -0.074,-0.0394 l -0.60735,-1.13817 -0.34071,0.45675 v 0.68142 c 0,0.0394 -0.0394,0.0394 -0.0394,0.0394 h -0.53081 c 0,0 -0.0371,0 -0.0371,-0.0394 z m 3.14785,0 c 0,-0.0371 0,-0.0371 0.0371,-0.0371 h 0.49377 c 0,0 0.0371,0 0.0371,0.0371 l 0.98757,1.70847 v -1.70847 c 0,-0.0371 0,-0.0371 0.0371,-0.0371 h 0.45426 c 0.0394,0 0.0394,0 0.0394,0.0371 v 2.61703 c 0,0.0394 0,0.0394 -0.0394,0.0394 h -0.45426 c -0.0371,0 -0.0765,0 -0.0765,-0.0394 l -0.98511,-1.70601 v 1.70601 c 0,0.0394 0,0.0394 -0.0394,0.0394 h -0.45427 c -0.0371,0 -0.0371,0 -0.0371,-0.0394 z m 4.16998,2.69357 c -0.22714,0 -0.45429,-0.0371 -0.60488,-0.15067 -0.19011,-0.1161 -0.30368,-0.26665 -0.38023,-0.49379 -0.0371,-0.0396 -0.0371,-0.11359 -0.0371,-0.153 0,-0.0371 -0.0394,-0.074 -0.0394,-0.15067 0,-0.0371 0,-0.11359 0,-0.19011 0,-0.0765 0,-0.15067 0,-0.26415 0,-0.0765 0,-0.19013 0,-0.26665 0,-0.0371 0,-0.11359 0,-0.19011 0,-0.0371 0.0394,-0.074 0.0394,-0.15067 0,-0.0371 0,-0.0765 0.0371,-0.11359 0.0765,-0.22714 0.19012,-0.38021 0.38023,-0.49378 0.15067,-0.11359 0.37774,-0.19011 0.60488,-0.19011 0.22959,0 0.45674,0.0765 0.60733,0.19011 0.19011,0.11359 0.30367,0.26664 0.38021,0.49378 0,0.0371 0.0371,0.0765 0.0371,0.11359 0,0.0765 0,0.11359 0,0.15067 0.0371,0.0765 0.0371,0.153 0.0371,0.19011 0,0.0765 0,0.19009 0,0.26665 0,0.11358 0,0.18761 0,0.26415 0,0.0765 0,0.153 -0.0371,0.19011 0,0.0765 0,0.11358 0,0.15067 0,0.0396 -0.0371,0.11359 -0.0371,0.153 -0.0765,0.22714 -0.1901,0.37774 -0.38021,0.49379 -0.15067,0.11358 -0.37774,0.15067 -0.60733,0.15067 z m 0,-0.53082 c 0.11359,0 0.19009,0 0.26663,-0.0765 0.0765,-0.0371 0.11358,-0.11359 0.15068,-0.19011 0,-0.0371 0,-0.074 0.0394,-0.11358 0,0 0,-0.0371 0,-0.074 0,-0.0765 0,-0.11358 0,-0.1901 0,-0.0396 0,-0.11359 0,-0.22713 0,-0.0765 0,-0.153 0,-0.22962 0,-0.0371 0,-0.11359 0,-0.15068 0,-0.0371 0,-0.0765 0,-0.11359 -0.0394,-0.0371 -0.0394,-0.0371 -0.0394,-0.0765 -0.0371,-0.074 -0.074,-0.15067 -0.15068,-0.22714 -0.0765,-0.0371 -0.15301,-0.0765 -0.26663,-0.0765 -0.1136,0 -0.22714,0.0396 -0.26419,0.0765 -0.0765,0.0765 -0.153,0.15301 -0.153,0.22714 -0.0371,0.0394 -0.0371,0.0394 -0.0371,0.0765 0,0.0371 0,0.0765 0,0.11359 0,0.0371 0,0.11359 0,0.15068 -0.0371,0.0765 -0.0371,0.153 -0.0371,0.22962 0,0.11359 0,0.18762 0.0371,0.22713 0,0.0765 0,0.11359 0,0.1901 0,0.0371 0,0.074 0,0.074 0,0.0394 0,0.0765 0.0371,0.11358 0,0.0765 0.0765,0.15301 0.153,0.19011 0.0371,0.0765 0.15067,0.0765 0.26419,0.0765 z m 2.08621,-2.16275 c 0,-0.0371 0,-0.0371 0.0394,-0.0371 h 0.49131 c 0.0394,0 0.0394,0 0.0394,0.0371 v 2.12572 c 0,0 0,0 0.0371,0 h 1.17522 c 0.0371,0 0.0371,0.0371 0.0371,0.0371 v 0.45428 c 0,0.0394 0,0.0394 -0.0371,0.0394 h -1.74306 c -0.0394,0 -0.0394,0 -0.0394,-0.0394 z m 3.6416,2.69357 c -0.22711,0 -0.45673,-0.0371 -0.60732,-0.15067 -0.19011,-0.1161 -0.30367,-0.26665 -0.38021,-0.49379 0,-0.0396 -0.0371,-0.11359 -0.0371,-0.153 0,-0.0371 0,-0.074 -0.0371,-0.15067 0,-0.0371 0,-0.11359 0,-0.19011 0,-0.0765 0,-0.15067 0,-0.26415 0,-0.0765 0,-0.19013 0,-0.26665 0,-0.0371 0,-0.11359 0,-0.19011 0.0371,-0.0371 0.0371,-0.074 0.0371,-0.15067 0,-0.0371 0.0371,-0.0765 0.0371,-0.11359 0.0765,-0.22714 0.1901,-0.38021 0.38021,-0.49378 0.15067,-0.11359 0.38021,-0.19011 0.60734,-0.19011 0.22715,0 0.45428,0.0765 0.6049,0.19011 0.1901,0.11359 0.30367,0.26664 0.38021,0.49378 0.0371,0.0371 0.0371,0.0765 0.0371,0.11359 0,0.0765 0.0394,0.11359 0.0394,0.15067 0,0.0765 0,0.153 0,0.19011 0,0.0765 0,0.19009 0,0.26665 0,0.11358 0,0.18761 0,0.26415 0,0.0765 0,0.153 0,0.19011 0,0.0765 -0.0394,0.11358 -0.0394,0.15067 0,0.0396 0,0.11359 -0.0371,0.153 -0.0765,0.22714 -0.19011,0.37774 -0.38021,0.49379 -0.15068,0.11358 -0.37775,0.15067 -0.6049,0.15067 z m 0,-0.53082 c 0.11359,0 0.19012,0 0.26419,-0.0765 0.0765,-0.0371 0.153,-0.11359 0.153,-0.19011 0.0371,-0.0371 0.0371,-0.074 0.0371,-0.11358 0,0 0,-0.0371 0,-0.074 0,-0.0765 0,-0.11358 0,-0.1901 0,-0.0396 0,-0.11359 0,-0.22713 0,-0.0765 0,-0.153 0,-0.22962 0,-0.0371 0,-0.11359 0,-0.15068 0,-0.0371 0,-0.0765 0,-0.11359 0,-0.0371 0,-0.0371 -0.0371,-0.0765 0,-0.074 -0.0765,-0.15067 -0.153,-0.22714 -0.074,-0.0371 -0.15069,-0.0765 -0.26419,-0.0765 -0.11358,0 -0.19008,0.0396 -0.26662,0.0765 -0.0765,0.0765 -0.11357,0.15301 -0.15068,0.22714 0,0.0394 -0.0394,0.0394 -0.0394,0.0765 0,0.0371 0,0.0765 0,0.11359 0,0.0371 0,0.11359 0,0.15068 0,0.0765 0,0.153 0,0.22962 0,0.11359 0,0.18762 0,0.22713 0,0.0765 0,0.11359 0,0.1901 0,0.0371 0,0.074 0,0.074 0,0.0394 0.0394,0.0765 0.0394,0.11358 0.0371,0.0765 0.074,0.15301 0.15068,0.19011 0.0765,0.0765 0.153,0.0765 0.26662,0.0765 z m 2.08624,-0.11358 c 0,-0.0396 -0.0394,-0.11359 -0.0394,-0.15301 0,-0.0371 -0.0371,-0.074 -0.0371,-0.15067 0,-0.0371 0,-0.11359 0,-0.19011 0,-0.0765 0,-0.15067 0,-0.26415 0,-0.0765 0,-0.19013 0,-0.26665 0,-0.0371 0,-0.11358 0,-0.1901 0,-0.0371 0.0371,-0.074 0.0371,-0.15068 0,-0.0371 0.0394,-0.0765 0.0394,-0.11358 0.074,-0.22714 0.18764,-0.38022 0.37774,-0.49379 0.153,-0.11359 0.38021,-0.19011 0.60734,-0.19011 0.15067,0 0.26418,0.0396 0.3407,0.0765 0.11359,0 0.19012,0.0371 0.30369,0.11358 0.0765,0.0371 0.15067,0.11359 0.1901,0.19011 0.0765,0.0371 0.1136,0.15067 0.15068,0.22714 0,0 0,0.0371 -0.0371,0.0371 l -0.41726,0.19011 c -0.0371,0 -0.0371,0 -0.0765,-0.0371 -0.0371,-0.0765 -0.11358,-0.15301 -0.1901,-0.19011 -0.0371,-0.0371 -0.15067,-0.0765 -0.26417,-0.0765 -0.1136,0 -0.19009,0.0396 -0.26665,0.0765 -0.074,0.0765 -0.15067,0.153 -0.15067,0.22714 0,0.0394 -0.0371,0.0394 -0.0371,0.0765 0,0.0371 0,0.0765 0,0.11359 0,0.0371 0,0.11359 0,0.15067 0,0.0765 0,0.15301 0,0.22963 0,0.11359 0,0.18762 0,0.22712 0,0.0765 0,0.11359 0,0.19011 0,0.0371 0,0.074 0,0.074 0,0.0394 0.0371,0.0765 0.0371,0.11359 0,0.0765 0.0765,0.153 0.15067,0.19011 0.0765,0.0765 0.153,0.0765 0.26665,0.0765 0.11358,0 0.1901,0 0.30367,-0.0371 0.074,-0.0765 0.11359,-0.11609 0.15067,-0.22961 0,-0.0371 0,-0.074 0,-0.11359 0.0394,-0.0371 0.0394,-0.074 0.0394,-0.15067 l -0.0394,-0.0371 h -0.37774 c 0,0 -0.0394,0 -0.0394,-0.0396 v -0.37774 l 0.0394,-0.0396 h 0.94807 c 0.0371,0 0.0371,0.0396 0.0371,0.0396 v 0.22714 c 0,0.11358 0,0.22714 0,0.34071 -0.0371,0.11358 -0.0371,0.1901 -0.0765,0.26417 -0.074,0.22961 -0.19011,0.38021 -0.3407,0.53327 -0.19011,0.11359 -0.38022,0.15067 -0.64439,0.15067 -0.22715,0 -0.45426,-0.0371 -0.60733,-0.15067 -0.19011,-0.1161 -0.30368,-0.26663 -0.37775,-0.49377 z m 3.07132,-2.04919 c 0,-0.0371 0,-0.0371 0.0371,-0.0371 h 0.49376 c 0.0371,0 0.0371,0 0.0371,0.0371 v 2.61703 c 0,0.0394 0,0.0394 -0.0371,0.0394 h -0.49376 c -0.0371,0 -0.0371,0 -0.0371,-0.0394"
       style="fill:#000000;fill-opacity:1;fill-rule:nonzero;stroke:none;stroke-width:0.63203764"
       inkscape:connector-curvature="0" />
    <path
       id="path265"
       d="m -359.46008,242.4918 c 0,-0.0603 0.0641,-0.0603 0.0641,-0.0603 h 0.86282 c 0,0 0.0603,0 0.0603,0.0603 v 1.66545 h 1.48085 v -1.66545 c 0,-0.0603 0.0603,-0.0603 0.0603,-0.0603 h 0.86282 c 0,0 0.0603,0 0.0603,0.0603 v 4.25388 c 0,0.0641 -0.0603,0.0641 -0.0603,0.0641 h -0.86282 c 0,0 -0.0603,0 -0.0603,-0.0641 v -1.72564 h -1.48085 v 1.72564 c 0,0.0641 -0.0603,0.0641 -0.0603,0.0641 h -0.86282 c 0,0 -0.0641,0 -0.0641,-0.0641 z m 6.90253,4.37829 c -0.24491,0 -0.48962,0 -0.67419,-0.12435 -0.2487,-0.0603 -0.43342,-0.18464 -0.55783,-0.30902 -0.18463,-0.12027 -0.24492,-0.30499 -0.36921,-0.48959 -0.0603,-0.2487 -0.12435,-0.49361 -0.12435,-0.74243 v -2.71284 c 0,-0.0603 0,-0.0603 0.0644,-0.0603 h 0.86282 c 0,0 0.0603,0 0.0603,0.0603 v 2.71284 c 0,0.2487 0.0641,0.49361 0.18464,0.61802 0.12435,0.12435 0.30898,0.18463 0.5538,0.18463 0.18871,0 0.3732,-0.0603 0.49359,-0.18463 0.12435,-0.12435 0.18463,-0.3692 0.18463,-0.61802 v -2.71284 c 0,-0.0603 0.0641,-0.0603 0.0641,-0.0603 h 0.86282 c 0,0 0.0603,0 0.0603,0.0603 v 2.71284 c 0,0.2487 -0.0603,0.49361 -0.12435,0.74243 -0.12056,0.18463 -0.18463,0.36921 -0.3692,0.48959 -0.12028,0.12435 -0.305,0.2487 -0.49362,0.30902 -0.24491,0.12435 -0.4294,0.12435 -0.67822,0.12435 z m 3.39106,-4.37829 c 0,-0.0603 0.0641,-0.0603 0.0641,-0.0603 h 0.7986 c 0.0641,0 0.0641,0 0.0641,0.0603 l 1.10762,2.46804 h 0.0641 l 1.10762,-2.46804 c 0,-0.0603 0,-0.0603 0.0603,-0.0603 h 0.80262 c 0,0 0.0603,0 0.0603,0.0603 v 4.25388 c 0,0.0641 -0.0603,0.0641 -0.0603,0.0641 h -0.73841 c -0.0644,0 -0.0644,0 -0.0644,-0.0641 v -2.46405 h -0.0603 l -0.80263,1.85004 c 0,0.0603 -0.0603,0.0603 -0.12027,0.0603 h -0.43342 c -0.0603,0 -0.12435,0 -0.12435,-0.0603 l -0.7986,-1.85004 h -0.0641 v 2.46405 c 0,0.0641 0,0.0641 -0.0603,0.0641 h -0.73842 c 0,0 -0.0641,0 -0.0641,-0.0641 z m 7.09112,0 c 0,-0.0603 0,-0.0603 0.0603,-0.0603 h 0.80262 c 0.0603,0 0.0603,0 0.0603,0.0603 l 1.54104,4.25388 c 0,0.0641 0,0.0641 -0.0603,0.0641 h -0.86282 c 0,0 -0.0644,0 -0.0644,-0.0641 l -0.24491,-0.79861 h -1.54101 l -0.2487,0.79861 c 0,0.0641 -0.0603,0.0641 -0.12027,0.0641 h -0.80263 c -0.0603,0 -0.0603,0 -0.0603,-0.0641 z m 0.98321,2.65265 -0.48959,-1.54101 h -0.0641 l -0.49361,1.54101 z m 2.89744,-2.65265 c 0,-0.0603 0,-0.0603 0.0644,-0.0603 h 0.79861 c 0,0 0.0644,0 0.0644,0.0603 l 1.60123,2.77705 v -2.77705 c 0,-0.0603 0,-0.0603 0.0603,-0.0603 h 0.7424 c 0.0603,0 0.0603,0 0.0603,0.0603 v 4.25388 c 0,0.0641 0,0.0641 -0.0603,0.0641 h -0.7424 c -0.0603,0 -0.12027,0 -0.12027,-0.0641 l -1.60525,-2.77306 v 2.77306 c 0,0.0641 0,0.0641 -0.0603,0.0641 h -0.73841 c -0.0644,0 -0.0644,0 -0.0644,-0.0641 z m 5.0565,3.02185 -0.0603,-0.0603 v -0.67822 c 0,-0.0641 0.0603,-0.0641 0.0603,-0.0641 h 1.91025 c 0,0 0.0603,0 0.0603,0.0641 v 0.67822 l -0.0603,0.0603 z m 3.57566,-3.02185 c 0,-0.0603 0,-0.0603 0.0603,-0.0603 h 0.73841 c 0.0641,0 0.12435,0 0.12435,0.0603 l 1.11164,2.46804 h 0.0603 l 1.04742,-2.46804 c 0.0603,-0.0603 0.0603,-0.0603 0.12435,-0.0603 h 0.73841 c 0.0644,0 0.0644,0 0.0644,0.0603 v 4.25388 c 0,0.0641 0,0.0641 -0.0644,0.0641 h -0.73841 c 0,0 -0.0644,0 -0.0644,-0.0641 v -2.46405 l -0.79861,1.85004 c -0.0643,0.0603 -0.0643,0.0603 -0.12434,0.0603 h -0.49362 c 0,0 -0.0603,0 -0.12435,-0.0603 l -0.79861,-1.85004 v 2.46405 c 0,0.0641 -0.0641,0.0641 -0.0641,0.0641 h -0.73841 c -0.0603,0 -0.0603,0 -0.0603,-0.0641 z m 7.02694,0 c 0,-0.0603 0.0603,-0.0603 0.12435,-0.0603 h 0.79861 c 0,0 0.0644,0 0.0644,0.0603 l 1.47682,4.25388 c 0,0.0641 0,0.0641 0,0.0641 h -0.86282 c -0.0603,0 -0.0603,0 -0.0603,-0.0641 l -0.30901,-0.79861 h -1.54104 l -0.24491,0.79861 c 0,0.0641 0,0.0641 -0.0644,0.0641 h -0.86282 c 0,0 -0.0603,0 0,-0.0641 z m 0.98723,2.65265 -0.49361,-1.54101 -0.49362,1.54101 z m 2.77304,0.67821 c -0.0644,-0.12435 -0.0644,-0.18463 -0.0644,-0.2487 -0.0603,-0.0603 -0.0603,-0.12027 -0.0603,-0.24491 0,-0.0603 0,-0.18463 0,-0.30901 0,-0.12435 0,-0.24492 0,-0.42937 0,-0.12435 0,-0.30904 0,-0.43342 0,-0.12435 0,-0.18463 0,-0.30901 0,-0.0603 0,-0.12028 0.0603,-0.24492 0,-0.0603 0,-0.12435 0.0644,-0.18463 0.12027,-0.36921 0.30901,-0.61802 0.55381,-0.80263 0.24491,-0.18463 0.61802,-0.30901 0.98722,-0.30901 0.36921,0 0.67819,0.12435 0.9872,0.30901 0.24492,0.12435 0.4294,0.36921 0.55381,0.67822 0,0.0603 0,0.0603 -0.0644,0.12435 l -0.67821,0.30898 c -0.0603,0 -0.0603,0 -0.0603,-0.0641 -0.0603,-0.12027 -0.18463,-0.24491 -0.30898,-0.3692 -0.0603,-0.0603 -0.24491,-0.12435 -0.4294,-0.12435 -0.18463,0 -0.30901,0.0644 -0.43342,0.12435 -0.0603,0.12435 -0.18463,0.2487 -0.24491,0.3692 0,0.0641 0,0.0641 0,0.12436 0,0.0603 0,0.12434 0,0.18463 -0.0644,0.0603 -0.0644,0.12435 -0.0644,0.24491 0,0.12435 0,0.2487 0,0.37326 0,0.18463 0,0.30496 0,0.42937 0,0.0643 0,0.18463 0.0644,0.2487 0,0.0603 0,0.12027 0,0.18463 0,0 0,0.0603 0,0.12027 0.0603,0.12435 0.18463,0.2487 0.24491,0.30901 0.12435,0.12435 0.2487,0.12435 0.43342,0.12435 0.18463,0 0.36918,0 0.4294,-0.12435 0.12435,-0.0603 0.2487,-0.18463 0.30898,-0.3692 0,0 0,0 0.0603,0 l 0.67821,0.30901 c 0.0644,0 0.0644,0.0603 0.0644,0.0603 -0.12435,0.30901 -0.30898,0.55381 -0.55381,0.74243 -0.30901,0.18463 -0.61799,0.24491 -0.9872,0.24491 -0.3692,0 -0.74243,-0.0603 -0.98722,-0.24491 -0.24492,-0.18871 -0.43343,-0.49361 -0.55381,-0.80263 z m 4.62308,-3.33086 c 0,-0.0603 0,-0.0603 0.0603,-0.0603 h 0.80262 c 0.0603,0 0.0603,0 0.0603,0.0603 v 1.66545 h 1.48084 c 0.0603,0 0.0603,0 0.0603,0 v -1.66545 c 0,-0.0603 0,-0.0603 0.0641,-0.0603 h 0.7986 c 0.0644,0 0.0644,0 0.0644,0.0603 v 4.25388 c 0,0.0641 0,0.0641 -0.0644,0.0641 h -0.7986 c -0.0641,0 -0.0641,0 -0.0641,-0.0641 v -1.72564 c 0,0 0,0 -0.0603,0 h -1.48084 v 1.72564 c 0,0.0641 0,0.0641 -0.0603,0.0641 h -0.80262 c -0.0603,0 -0.0603,0 -0.0603,-0.0641 z m 5.17688,0 c 0,-0.0603 0,-0.0603 0.0603,-0.0603 h 0.80262 c 0.0603,0 0.12436,0 0.12436,0.0603 v 4.25388 c 0,0.0641 -0.0644,0.0641 -0.12436,0.0641 h -0.80262 c -0.0603,0 -0.0603,0 -0.0603,-0.0641 z m 2.71285,0 c 0,-0.0603 0.0603,-0.0603 0.0603,-0.0603 h 0.80262 c 0.0603,0 0.0603,0 0.12435,0.0603 l 1.54104,2.77705 v -2.77705 c 0,-0.0603 0.0603,-0.0603 0.0603,-0.0603 h 0.73837 c 0.0641,0 0.0641,0 0.0641,0.0603 v 4.25388 c 0,0.0641 0,0.0641 -0.0641,0.0641 h -0.73837 c -0.0603,0 -0.12435,0 -0.12435,-0.0641 l -1.54104,-2.77306 h -0.0603 v 2.77306 c 0,0.0641 0,0.0641 -0.0603,0.0641 h -0.74243 c 0,0 -0.0603,0 -0.0603,-0.0641 z m 5.17689,0 c 0,-0.0603 0,-0.0603 0.0603,-0.0603 h 2.83726 c 0,0 0.0603,0 0.0603,0.0603 v 0.67822 c 0,0.0644 -0.0603,0.0644 -0.0603,0.0644 h -1.91021 c 0,0 -0.0641,0 -0.0641,0.0603 v 0.86279 h 1.66541 l 0.0644,0.0603 v 0.74243 l -0.0644,0.0603 h -1.66541 v 0.92703 l 0.0641,0.0603 h 1.91021 c 0,0 0.0603,0 0.0603,0.0603 v 0.67822 c 0,0.0644 -0.0603,0.0644 -0.0603,0.0644 h -2.83726 c -0.0603,0 -0.0603,0 -0.0603,-0.0644 z m 7.02694,0 c 0,-0.0603 0,-0.0603 0.0603,-0.0603 h 0.80263 c 0.0644,0 0.12434,0 0.12434,0.0603 v 4.25388 c 0,0.0641 -0.0603,0.0641 -0.12434,0.0641 h -0.80263 c -0.0603,0 -0.0603,0 -0.0603,-0.0641 z m 2.71283,0 c 0,-0.0603 0.0603,-0.0603 0.0603,-0.0603 h 0.80261 c 0.0603,0 0.0603,0 0.12436,0.0603 l 1.541,2.77705 v -2.77705 c 0,-0.0603 0.0603,-0.0603 0.0603,-0.0603 h 0.73841 c 0.0641,0 0.0641,0 0.0641,0.0603 v 4.25388 c 0,0.0641 0,0.0641 -0.0641,0.0641 h -0.73841 c -0.0603,0 -0.12436,0 -0.12436,-0.0641 l -1.541,-2.77306 h -0.0603 v 2.77306 c 0,0.0641 0,0.0641 -0.0603,0.0641 h -0.74242 c 0,0 -0.0603,0 -0.0603,-0.0641 z m 6.16413,4.31809 c -0.0603,0 -0.0603,0 -0.0603,-0.0641 v -3.45125 l -0.0641,-0.0603 h -1.10761 c -0.0644,0 -0.0644,0 -0.0644,-0.0644 v -0.67822 c 0,-0.0603 0,-0.0603 0.0644,-0.0603 h 3.26665 c 0,0 0.0603,0 0.0603,0.0603 v 0.67822 c 0,0.0644 -0.0603,0.0644 -0.0603,0.0644 h -1.11161 c -0.0603,0 -0.0603,0.0603 -0.0603,0.0603 v 3.45125 c 0,0.0641 0,0.0641 -0.0603,0.0641 z m 3.51144,-4.31809 c 0,-0.0603 0.0641,-0.0603 0.0641,-0.0603 h 2.83325 c 0.0641,0 0.0641,0 0.0641,0.0603 v 0.67822 c 0,0.0644 0,0.0644 -0.0641,0.0644 h -1.84603 c -0.0641,0 -0.0641,0 -0.0641,0.0603 v 0.86279 c 0,0 0,0 0.0641,0 h 1.54101 c 0.0603,0 0.0603,0.0603 0.0603,0.0603 v 0.74243 c 0,0 0,0.0603 -0.0603,0.0603 h -1.54101 c -0.0641,0 -0.0641,0 -0.0641,0 v 0.92703 c 0,0 0,0.0603 0.0641,0.0603 h 1.84603 c 0.0641,0 0.0641,0 0.0641,0.0603 v 0.67822 c 0,0.0644 0,0.0644 -0.0641,0.0644 h -2.83325 c 0,0 -0.0641,0 -0.0641,-0.0644 z m 7.03093,4.31809 c 0,0 -0.0641,0 -0.0641,-0.0641 l -0.80263,-1.60123 h -0.55378 c -0.0603,0 -0.0603,0 -0.0603,0 v 1.60123 c 0,0.0641 0,0.0641 -0.0603,0.0641 h -0.80263 c -0.0641,0 -0.0641,0 -0.0641,-0.0641 v -4.25387 c 0,-0.0603 0,-0.0603 0.0641,-0.0603 h 1.72564 c 0.24491,0 0.42939,0 0.61799,0.0603 0.18464,0.0644 0.36921,0.18463 0.48962,0.30901 0.12436,0.12435 0.24871,0.2487 0.30902,0.43342 0.0641,0.18463 0.12435,0.3692 0.12435,0.55381 0,0.24491 -0.12435,0.49358 -0.2487,0.73841 -0.12027,0.18463 -0.30499,0.36918 -0.55381,0.49358 l 0.86282,1.72564 c 0,0 0,0 0,0.0641 0,0 0,0 -0.0603,0 z m -0.67819,-2.46804 c 0.18463,0 0.36918,-0.0603 0.4896,-0.18463 0.0641,-0.0603 0.12435,-0.24492 0.12435,-0.36921 0,-0.18463 -0.0603,-0.30901 -0.12435,-0.43342 -0.12027,-0.0603 -0.30499,-0.12027 -0.4896,-0.12027 H -276.06 c -0.0603,0 -0.0603,0 -0.0603,0.0603 v 0.9872 c 0,0 0,0.0603 0.0603,0.0603 z m 4.43447,-1.85005 c 0,-0.0603 0,-0.0603 0.0641,-0.0603 h 0.8026 c 0.0603,0 0.0603,0 0.0603,0.0603 l 1.54104,4.25388 c 0,0.0641 0,0.0641 -0.0603,0.0641 h -0.86684 c 0,0 -0.0603,0 -0.0603,-0.0641 l -0.24491,-0.79861 h -1.54102 l -0.2487,0.79861 c 0,0.0641 -0.0603,0.0641 -0.12027,0.0641 h -0.80263 c -0.0641,0 -0.0641,0 -0.0641,-0.0641 z m 0.98723,2.65265 -0.49363,-1.54101 h -0.0603 l -0.49362,1.54101 z m 2.71283,0.67821 c 0,-0.12435 -0.0603,-0.18463 -0.0603,-0.2487 0,-0.0603 0,-0.12027 -0.0641,-0.24491 0,-0.0603 0,-0.18463 0,-0.30901 0,-0.12435 0,-0.24492 0,-0.42937 0,-0.12435 0,-0.30904 0,-0.43342 0,-0.12435 0,-0.18463 0,-0.30901 0.0641,-0.0603 0.0641,-0.12028 0.0641,-0.24492 0,-0.0603 0.0603,-0.12435 0.0603,-0.18463 0.12436,-0.36921 0.30901,-0.61802 0.55381,-0.80263 0.30901,-0.18463 0.61799,-0.30901 0.98722,-0.30901 0.4334,0 0.73842,0.12435 0.98721,0.30901 0.24491,0.12435 0.4294,0.36921 0.5538,0.67822 0.0603,0.0603 0.0603,0.0603 0,0.12435 l -0.73841,0.30898 c 0,0 -0.0641,0 -0.0641,-0.0641 -0.0603,-0.12027 -0.12028,-0.24491 -0.24492,-0.3692 -0.12435,-0.0603 -0.24491,-0.12435 -0.43339,-0.12435 -0.18463,0 -0.3692,0.0644 -0.42943,0.12435 -0.12435,0.12435 -0.18464,0.2487 -0.2487,0.3692 0,0.0641 -0.0603,0.0641 -0.0603,0.12436 0,0.0603 0,0.12434 0,0.18463 0,0.0603 0,0.12435 0,0.24491 0,0.12435 0,0.2487 0,0.37326 0,0.18463 0,0.30496 0,0.42937 0,0.0643 0,0.18463 0,0.2487 0,0.0603 0,0.12027 0,0.18463 0,0 0.0603,0.0603 0.0603,0.12027 0.0641,0.12435 0.12435,0.2487 0.2487,0.30901 0.0603,0.12435 0.24492,0.12435 0.42943,0.12435 0.18871,0 0.30898,0 0.43339,-0.12435 0.12436,-0.0603 0.18464,-0.18463 0.24492,-0.3692 h 0.0641 l 0.73841,0.30901 c 0.0603,0 0.0603,0.0603 0,0.0603 -0.12434,0.30901 -0.30897,0.55381 -0.5538,0.74243 -0.2487,0.18463 -0.55381,0.24491 -0.98721,0.24491 -0.36923,0 -0.67821,-0.0603 -0.98722,-0.24491 -0.24492,-0.18871 -0.42941,-0.49361 -0.55381,-0.80263 z m 5.54609,0.98723 c -0.0603,0 -0.0603,0 -0.0603,-0.0641 v -3.45125 c 0,0 0,-0.0603 -0.0603,-0.0603 h -1.11164 c -0.0603,0 -0.0603,0 -0.0603,-0.0644 v -0.67822 c 0,-0.0603 0,-0.0603 0.0603,-0.0603 h 3.26665 c 0.0641,0 0.0641,0 0.0641,0.0603 v 0.67822 c 0,0.0644 0,0.0644 -0.0641,0.0644 h -1.10762 c -0.0603,0 -0.0603,0.0603 -0.0603,0.0603 v 3.45125 c 0,0.0641 0,0.0641 -0.0641,0.0641 z m 3.57566,-4.31809 c 0,-0.0603 0,-0.0603 0.0641,-0.0603 h 0.7986 c 0.0641,0 0.0641,0 0.0641,0.0603 v 4.25388 c 0,0.0641 0,0.0641 -0.0641,0.0641 h -0.7986 c -0.0641,0 -0.0641,0 -0.0641,-0.0641 z m 4.3181,4.37829 c -0.37323,0 -0.74244,-0.0603 -0.98723,-0.24492 -0.30901,-0.18871 -0.49362,-0.43342 -0.61802,-0.80262 -0.0603,-0.0644 -0.0603,-0.18464 -0.0603,-0.2487 0,-0.0603 -0.0641,-0.12028 -0.0641,-0.24492 0,-0.0603 0,-0.18463 0,-0.30901 0,-0.12435 0,-0.24491 0,-0.42937 0,-0.12435 0,-0.30904 0,-0.43342 0,-0.0603 0,-0.18463 0,-0.30901 0,-0.0603 0.0641,-0.12027 0.0641,-0.24492 0,-0.0603 0,-0.12434 0.0603,-0.18463 0.12435,-0.3692 0.30901,-0.61802 0.61802,-0.80262 0.24491,-0.18463 0.614,-0.30901 0.98723,-0.30901 0.36921,0 0.73841,0.12435 0.9832,0.30901 0.30901,0.18463 0.49363,0.43342 0.618,0.80262 0,0.0603 0.0603,0.12435 0.0603,0.18463 0,0.12436 0,0.18464 0,0.24492 0.0641,0.12435 0.0641,0.2487 0.0641,0.30901 0,0.12435 0,0.30898 0,0.43342 0,0.18463 0,0.30496 0,0.42937 0,0.12435 0,0.2487 -0.0641,0.30901 0,0.12435 0,0.18463 0,0.24492 0,0.0644 -0.0603,0.18463 -0.0603,0.2487 -0.12435,0.3692 -0.30899,0.614 -0.618,0.80262 -0.24491,0.18463 -0.61399,0.24492 -0.9832,0.24492 z m 0,-0.86282 c 0.18463,0 0.30499,0 0.4294,-0.12435 0.12435,-0.0603 0.18464,-0.18464 0.2487,-0.30902 0,-0.0603 0,-0.12027 0.0603,-0.18463 0,0 0,-0.0603 0,-0.12027 0,-0.12435 0,-0.18463 0,-0.30901 0,-0.0644 0,-0.18463 0,-0.36918 0,-0.12435 0,-0.2487 0,-0.37325 0,-0.0603 0,-0.18463 0,-0.24492 0,-0.0603 0,-0.12435 0,-0.18463 -0.0603,-0.0603 -0.0603,-0.0603 -0.0603,-0.12435 -0.0641,-0.12027 -0.12435,-0.24491 -0.2487,-0.3692 -0.12435,-0.0603 -0.24491,-0.12435 -0.4294,-0.12435 -0.18871,0 -0.37323,0.0644 -0.43343,0.12435 -0.12434,0.12435 -0.24491,0.2487 -0.24491,0.3692 -0.0641,0.0641 -0.0641,0.0641 -0.0641,0.12435 0,0.0603 0,0.12435 0,0.18463 0,0.0603 0,0.18464 -0.0603,0.24492 0,0.12435 0,0.2487 0,0.37325 0,0.18463 0,0.30497 0,0.36918 0.0603,0.12435 0.0603,0.18463 0.0603,0.30901 0,0.0603 0,0.12027 0,0.12027 0,0.0641 0,0.12435 0.0641,0.18463 0,0.12436 0.12028,0.24871 0.24491,0.30902 0.0603,0.12435 0.24492,0.12435 0.43343,0.12435 z m 3.38704,-3.51547 c 0,-0.0603 0,-0.0603 0.0641,-0.0603 h 0.73841 c 0.0603,0 0.12436,0 0.12436,0.0603 l 1.54103,2.77705 h 0.0603 v -2.77705 c 0,-0.0603 0,-0.0603 0.0603,-0.0603 h 0.74242 c 0,0 0.0603,0 0.0603,0.0603 v 4.25388 c 0,0.0641 -0.0603,0.0641 -0.0603,0.0641 h -0.80261 c 0,0 -0.0603,0 -0.12435,-0.0641 l -1.54104,-2.77306 v 2.77306 c 0,0.0641 -0.0603,0.0641 -0.0603,0.0641 h -0.73837 c -0.0641,0 -0.0641,0 -0.0641,-0.0641 z m 7.58475,0 c 0,-0.0603 0.0603,-0.0603 0.0603,-0.0603 h 0.86279 c 0,0 0.0603,0 0.0603,0.0603 v 3.45527 h 1.97446 l 0.0603,0.0603 v 0.73841 c 0,0.0641 -0.0603,0.0641 -0.0603,0.0641 h -2.89748 c 0,0 -0.0603,0 -0.0603,-0.0641 z m 5.67048,0 c 0,-0.0603 0.0603,-0.0603 0.12028,-0.0603 h 0.80262 c 0,0 0.0641,0 0.0641,0.0603 l 1.47684,4.25388 c 0,0.0641 0,0.0641 0,0.0641 h -0.86283 c -0.0603,0 -0.0603,0 -0.0603,-0.0641 l -0.30901,-0.79861 h -1.54101 l -0.24491,0.79861 c 0,0.0641 0,0.0641 -0.0641,0.0641 h -0.86281 c 0,0 -0.0603,0 0,-0.0641 z m 0.98723,2.65265 -0.49362,-1.54101 -0.49361,1.54101 z m 2.95766,-2.65265 c 0,-0.0603 0,-0.0603 0.0603,-0.0603 h 1.66542 c 0.49361,0 0.86282,0.0603 1.10762,0.30901 0.18464,0.18463 0.30904,0.49361 0.30904,0.86282 0,0.24491 -0.0603,0.4294 -0.12435,0.55381 -0.12027,0.18463 -0.24492,0.30898 -0.3692,0.36921 0.0641,0 0.12434,0.0641 0.18462,0.12435 0.12435,0.0603 0.18464,0.12435 0.24871,0.24491 0,0.0644 0.0603,0.18871 0.12434,0.2487 0,0.12435 0,0.24491 0,0.3692 0,0.43342 -0.12434,0.80263 -0.37322,0.98723 -0.24491,0.18464 -0.67822,0.30901 -1.10762,0.30901 h -1.66541 c -0.0603,0 -0.0603,0 -0.0603,-0.0641 z m 1.66543,1.72561 c 0.18463,0 0.30498,-0.0603 0.3692,-0.12027 0.12026,-0.12435 0.18463,-0.2487 0.18463,-0.43342 0,-0.12027 -0.0641,-0.24491 -0.18463,-0.36921 -0.0641,-0.0603 -0.18463,-0.12435 -0.3692,-0.12435 h -0.67823 c -0.0641,0 -0.0641,0 -0.0641,0.0644 v 0.92302 c 0,0.0603 0,0.0603 0.0641,0.0603 z m -0.74244,1.78986 c 0,0 0,0 0.0641,0 h 0.67822 c 0.24491,0 0.3692,0 0.48959,-0.12435 0.0641,-0.0603 0.12436,-0.24492 0.12436,-0.36921 0,-0.18463 -0.0603,-0.30901 -0.12436,-0.4294 -0.12028,-0.12435 -0.24491,-0.12435 -0.48959,-0.12435 h -0.67822 c -0.0641,0 -0.0641,0 -0.0641,0 z m 5.55012,0.86282 c -0.43342,0 -0.74241,-0.0603 -1.05145,-0.24492 -0.24491,-0.18871 -0.42937,-0.43342 -0.55377,-0.80262 -0.0603,-0.0644 -0.0603,-0.18464 -0.0603,-0.2487 -0.0603,-0.0603 -0.0603,-0.12028 -0.0603,-0.24492 0,-0.0603 0,-0.18463 0,-0.30901 0,-0.12435 0,-0.24491 0,-0.42937 0,-0.12435 0,-0.30904 0,-0.43342 0,-0.0603 0,-0.18463 0,-0.30901 0,-0.0603 0,-0.12027 0.0603,-0.24492 0,-0.0603 0,-0.12434 0.0603,-0.18463 0.12434,-0.3692 0.30897,-0.61802 0.55377,-0.80262 0.30904,-0.18463 0.61803,-0.30901 1.05145,-0.30901 0.3692,0 0.67821,0.12435 0.98321,0.30901 0.30901,0.18463 0.49361,0.43342 0.61803,0.80262 0,0.0603 0.0603,0.12435 0.0603,0.18463 0,0.12436 0,0.18464 0,0.24492 0,0.12435 0.0641,0.2487 0.0641,0.30901 0,0.12435 0,0.30898 0,0.43342 0,0.18463 0,0.30496 0,0.42937 0,0.12435 -0.0641,0.2487 -0.0641,0.30901 0,0.12435 0,0.18463 0,0.24492 0,0.0644 -0.0603,0.18463 -0.0603,0.2487 -0.12436,0.3692 -0.30902,0.614 -0.61803,0.80262 -0.305,0.18463 -0.61401,0.24492 -0.98321,0.24492 z m 0,-0.86282 c 0.18463,0 0.30499,0 0.4294,-0.12435 0.12435,-0.0603 0.18463,-0.18464 0.2487,-0.30902 0,-0.0603 0,-0.12027 0,-0.18463 0.0603,0 0.0603,-0.0603 0.0603,-0.12027 0,-0.12435 0,-0.18463 0,-0.30901 0,-0.0644 0,-0.18463 0,-0.36918 0,-0.12435 0,-0.2487 0,-0.37325 0,-0.0603 0,-0.18463 0,-0.24492 0,-0.0603 0,-0.12435 -0.0603,-0.18463 0,-0.0603 0,-0.0603 0,-0.12435 -0.0641,-0.12027 -0.12435,-0.24491 -0.2487,-0.3692 -0.12435,-0.0603 -0.24492,-0.12435 -0.4294,-0.12435 -0.18464,0 -0.37322,0.0644 -0.49361,0.12435 -0.0641,0.12435 -0.18464,0.2487 -0.24871,0.3692 0,0.0641 0,0.0641 0,0.12435 0,0.0603 0,0.12435 0,0.18463 -0.0603,0.0603 -0.0603,0.18464 -0.0603,0.24492 0,0.12435 0,0.2487 0,0.37325 0,0.18463 0,0.30497 0,0.36918 0,0.12435 0,0.18463 0.0603,0.30901 0,0.0603 0,0.12027 0,0.12027 0,0.0641 0,0.12435 0,0.18463 0.0641,0.12436 0.18463,0.24871 0.24871,0.30902 0.12026,0.12435 0.30901,0.12435 0.49361,0.12435 z m 5.79089,0.80262 c -0.0603,0 -0.0603,0 -0.12028,-0.0641 l -0.74239,-1.60123 h -0.55384 c -0.0603,0 -0.0603,0 -0.0603,0 v 1.60123 c 0,0.0641 0,0.0641 -0.0641,0.0641 h -0.79861 c -0.0641,0 -0.0641,0 -0.0641,-0.0641 v -4.25387 c 0,-0.0603 0,-0.0603 0.0641,-0.0603 h 1.72561 c 0.24492,0 0.42943,0 0.61401,0.0603 0.18871,0.0644 0.37322,0.18463 0.49362,0.30901 0.12434,0.12435 0.18462,0.2487 0.309,0.43342 0.0603,0.18463 0.0603,0.3692 0.0603,0.55381 0,0.24491 -0.0603,0.49358 -0.18464,0.73841 -0.12027,0.18463 -0.30499,0.36918 -0.55381,0.49358 l 0.86283,1.72564 c 0,0 0,0 0,0.0641 z m -0.67822,-2.46804 c 0.18871,0 0.37322,-0.0603 0.43343,-0.18463 0.12434,-0.0603 0.18462,-0.24492 0.18462,-0.36921 0,-0.18463 -0.0603,-0.30901 -0.18462,-0.43342 -0.0603,-0.0603 -0.24493,-0.12027 -0.43343,-0.12027 h -0.73841 c -0.0603,0 -0.0603,0 -0.0603,0.0603 v 0.9872 c 0,0 0,0.0603 0.0603,0.0603 z m 4.37829,-1.85005 c 0,-0.0603 0.0603,-0.0603 0.12434,-0.0603 h 0.79861 c 0.0641,0 0.0641,0 0.0641,0.0603 l 1.47682,4.25388 c 0.0641,0.0641 0,0.0641 0,0.0641 h -0.86283 c -0.0603,0 -0.0603,0 -0.0603,-0.0641 l -0.24491,-0.79861 h -1.54101 l -0.24869,0.79861 c -0.0603,0.0641 -0.0603,0.0641 -0.12436,0.0641 h -0.86281 c 0,0 0,0 0,-0.0641 z m 0.98722,2.65265 -0.49361,-1.54101 -0.49361,1.54101 z m 3.51145,1.66544 c -0.0603,0 -0.0603,0 -0.0603,-0.0641 v -3.45125 l -0.0603,-0.0603 h -1.11164 c -0.0603,0 -0.0603,0 -0.0603,-0.0644 v -0.67822 c 0,-0.0603 0,-0.0603 0.0603,-0.0603 h 3.26668 c 0,0 0.0641,0 0.0641,0.0603 v 0.67822 c 0,0.0644 -0.0641,0.0644 -0.0641,0.0644 h -1.10761 c -0.0641,0 -0.0641,0.0603 -0.0641,0.0603 v 3.45125 c 0,0.0641 0,0.0641 -0.0603,0.0641 z m 5.0565,0.0603 c -0.43342,0 -0.73841,-0.0603 -1.04743,-0.24491 -0.24869,-0.18871 -0.4936,-0.43342 -0.55781,-0.80263 -0.0603,-0.0644 -0.0603,-0.18463 -0.0603,-0.2487 -0.0603,-0.0603 -0.0603,-0.12027 -0.0603,-0.24491 0,-0.0603 0,-0.18463 0,-0.30901 0,-0.12435 0,-0.24492 0,-0.4294 0,-0.12435 0,-0.30901 0,-0.43339 0,-0.0603 0,-0.18463 0,-0.30901 0,-0.0603 0,-0.12028 0.0603,-0.24492 0,-0.0603 0,-0.12435 0.0603,-0.18463 0.0641,-0.36921 0.30903,-0.61802 0.55781,-0.80262 0.30902,-0.18464 0.61401,-0.30902 1.04743,-0.30902 0.3692,0 0.67822,0.12435 0.98723,0.30902 0.305,0.18463 0.48959,0.43341 0.61401,0.80262 0,0.0603 0,0.12435 0.0641,0.18463 0,0.12435 0,0.18463 0,0.24492 0,0.12435 0,0.2487 0.0603,0.30901 0,0.12435 0,0.30898 0,0.43342 0,0.18463 0,0.30496 0,0.42937 -0.0603,0.12435 -0.0603,0.2487 -0.0603,0.30901 0,0.12435 0,0.18463 0,0.24491 -0.0641,0.0644 -0.0641,0.18464 -0.0641,0.2487 -0.12436,0.36921 -0.30901,0.61401 -0.61401,0.80263 -0.30901,0.18463 -0.61803,0.24491 -0.98723,0.24491 z m 0,-0.86282 c 0.18463,0 0.30901,0 0.4294,-0.12435 0.12435,-0.0603 0.18463,-0.18463 0.24871,-0.30901 0,-0.0603 0,-0.12027 0,-0.18463 0,0 0.0603,-0.0603 0.0603,-0.12027 0,-0.12435 0,-0.18463 0,-0.30901 0,-0.0644 0,-0.18464 0,-0.36921 0,-0.12435 0,-0.2487 0,-0.37323 0,-0.0603 0,-0.18463 0,-0.24491 0,-0.0603 -0.0603,-0.12435 -0.0603,-0.18463 0,-0.0603 0,-0.0603 0,-0.12435 -0.0641,-0.12027 -0.12436,-0.24491 -0.24871,-0.36921 -0.12027,-0.0603 -0.24491,-0.12435 -0.4294,-0.12435 -0.18464,0 -0.3692,0.0644 -0.49361,0.12435 -0.12435,0.12435 -0.18463,0.2487 -0.24491,0.36921 0,0.0641 0,0.0641 0,0.12435 0,0.0603 0,0.12435 -0.0641,0.18463 0,0.0603 0,0.18463 0,0.24491 0,0.12436 0,0.24871 0,0.37323 0,0.18463 0,0.30499 0,0.36921 0,0.12434 0,0.18463 0,0.30901 0.0641,0.0603 0.0641,0.12027 0.0641,0.12027 0,0.0641 0,0.12435 0,0.18463 0.0603,0.12435 0.12026,0.2487 0.24491,0.30901 0.12434,0.12435 0.30901,0.12435 0.49361,0.12435 z m 5.79492,0.80263 c -0.0641,0 -0.0641,0 -0.12435,-0.0641 l -0.73841,-1.60123 h -0.55784 c -0.0603,0 -0.0603,0 -0.0603,0 v 1.60123 c 0,0.0641 0,0.0641 -0.0603,0.0641 h -0.86283 c 0,0 -0.0641,0 -0.0641,-0.0641 v -4.25388 c 0,-0.0603 0.0641,-0.0603 0.0641,-0.0603 h 1.78584 c 0.2487,0 0.43342,0 0.61802,0.0603 0.18463,0.0644 0.30499,0.18464 0.49362,0.30902 0.12026,0.12435 0.18462,0.2487 0.24491,0.43342 0.12435,0.18463 0.12435,0.3692 0.12435,0.5538 0,0.24492 -0.0641,0.49359 -0.18464,0.73841 -0.12434,0.18464 -0.37322,0.36918 -0.61801,0.49359 l 0.923,1.72564 c 0,0 0,0 0,0.0641 -0.0603,0 -0.0603,0 -0.0603,0 z m -0.67821,-2.46804 c 0.18463,0 0.30901,-0.0603 0.42939,-0.18464 0.12435,-0.0603 0.18464,-0.24491 0.18464,-0.3692 0,-0.18463 -0.0603,-0.30901 -0.18464,-0.43342 -0.12027,-0.0603 -0.24491,-0.12027 -0.42939,-0.12027 h -0.74245 c -0.0603,0 -0.0603,0 -0.0603,0.0603 v 0.9872 c 0,0 0,0.0603 0.0603,0.0603 z m 4.00505,2.46804 c 0,0 -0.0603,0 -0.0603,-0.0641 v -1.66143 l -1.29623,-2.59245 c 0,-0.0603 0,-0.0603 0.0641,-0.0603 h 0.86283 c 0,0 0.0603,0 0.0603,0.0603 l 0.80259,1.60526 h 0.0603 l 0.7384,-1.60526 c 0.0641,-0.0603 0.0641,-0.0603 0.12436,-0.0603 h 0.80262 c 0.0603,0 0.0603,0 0.0603,0 0,0 0,0 0,0.0603 l -1.29221,2.59245 v 1.66143 c 0,0.0641 0,0.0641 -0.0641,0.0641"
       style="fill:#000000;fill-opacity:1;fill-rule:nonzero;stroke:none;stroke-width:1.0273515"
       inkscape:connector-curvature="0" />
  </g>
  <path
     style="opacity:1;fill:none;fill-opacity:1;stroke:#000000;stroke-width:0.13229167;stroke-linecap:butt;stroke-linejoin:round;stroke-miterlimit:4;stroke-dasharray:none;stroke-dashoffset:0;stroke-opacity:1"
     d="M 0.08013001,0.09443311 H 162.61557"
     id="path819"
     inkscape:connector-curvature="0" />
</svg>
