<?xml version="1.0" encoding="UTF-8" standalone="no"?>
<svg
   xmlns:dc="http://purl.org/dc/elements/1.1/"
   xmlns:cc="http://creativecommons.org/ns#"
   xmlns:rdf="http://www.w3.org/1999/02/22-rdf-syntax-ns#"
   xmlns:svg="http://www.w3.org/2000/svg"
   xmlns="http://www.w3.org/2000/svg"
   xmlns:sodipodi="http://sodipodi.sourceforge.net/DTD/sodipodi-0.dtd"
   xmlns:inkscape="http://www.inkscape.org/namespaces/inkscape"
   id="svg88859"
   version="1.1"
   viewBox="0 0 10.810414 9.7166647"
   height="36.7244"
   width="40.858257"
   sodipodi:docname="nav_trends.svg"
   inkscape:version="1.0.2 (e86c870879, 2021-01-15, custom)">
  <sodipodi:namedview
     pagecolor="#d2d2d2"
     bordercolor="#666666"
     borderopacity="1"
     objecttolerance="10"
     gridtolerance="10"
     guidetolerance="10"
     inkscape:pageopacity="0"
     inkscape:pageshadow="2"
     inkscape:window-width="2400"
     inkscape:window-height="1271"
     id="namedview9"
     showgrid="false"
     inkscape:zoom="14.672466"
     inkscape:cx="5.9117225"
     inkscape:cy="10.216622"
     inkscape:window-x="-9"
     inkscape:window-y="-9"
     inkscape:window-maximized="1"
     inkscape:current-layer="svg88859" />
  <defs
     id="defs88853" />
  <metadata
     id="metadata88856">
    <rdf:RDF>
      <cc:Work
         rdf:about="">
        <dc:format>image/svg+xml</dc:format>
        <dc:type
           rdf:resource="http://purl.org/dc/dcmitype/StillImage" />
        <dc:title></dc:title>
      </cc:Work>
    </rdf:RDF>
  </metadata>
  <path
     id="path4100-7-3-6-4-4-6-8-7-8-3-4-0"
     style="color:#bebebe;display:inline;overflow:visible;visibility:visible;fill:#ffffff;fill-opacity:1;fill-rule:nonzero;stroke:#ffffff;stroke-width:0.904909;stroke-linecap:round;stroke-linejoin:round;stroke-miterlimit:4;stroke-dasharray:none;stroke-opacity:1;marker:none;enable-background:accumulate"
     d="M 7.1579546,0.45245448 8.2547529,1.549253 6.2176973,3.5858037 c 0.055699,0 0.1096874,-0.015654 0.1671455,-0.015654 0.3371271,0 0.6465256,0.1188022 0.8983448,0.3095478 L 8.934445,2.2309647 10.031243,3.3277631 V 0.45346441 Z M 4.0013766,1.9714093 0.4524358,5.5248949 1.1275829,6.2005469 4.0013766,3.3267533 5.0597972,4.3851739 C 5.2115533,4.0947559 5.451695,3.8592112 5.7480737,3.7181063 Z m 4.6644233,1.9138426 c -0.4673851,-1.955e-4 -0.8463323,0.378752 -0.8463323,0.8463326 -9.78e-5,0.467678 0.3788495,0.8465279 0.8463323,0.8463324 0.4673851,9.77e-5 0.8464304,-0.3787518 0.8463327,-0.8463324 0,-0.4674828 -0.3789476,-0.8464304 -0.8463327,-0.8463326 z M 6.3838329,4.0180594 A 1.0489737,1.0492971 0 0 0 5.335007,5.0678956 1.0489737,1.0492971 0 0 0 6.3838329,6.1172268 1.0489737,1.0492971 0 0 0 7.4326592,5.0678956 1.0489737,1.0492971 0 0 0 6.3838329,4.0180594 Z m 1.8582958,1.9835288 c -0.3412312,0 -0.647938,0.1344615 -0.8756207,0.3524701 0.8057824,0.1993448 1.4080486,0.9059181 1.4528033,1.7613412 h 1.1159874 c 0.2343283,0 0.4226613,-0.189148 0.4226613,-0.4236713 V 7.5882092 7.2710869 c 0,-0.7035695 -0.5661246,-1.2689938 -1.2694987,-1.2689938 z m -2.3824564,0.639799 c -0.8719374,0 -1.5739965,0.7019616 -1.5739965,1.5739967 v 0.3938778 0.129778 c 0,0.2907108 0.233759,0.5251705 0.5246656,0.5251705 h 3.1469834 c 0.2905154,0 0.5246656,-0.2344597 0.5246656,-0.5251705 V 8.6092617 8.2153839 c 0,-0.8720351 -0.7019451,-1.5739967 -1.5734919,-1.5739967 z" />
  <g
     transform="matrix(0.97717979,0,0,0.97717979,-80.039051,-121.36499)"
     id="layer1">
    <path
       style="color:#bebebe;display:inline;overflow:visible;visibility:visible;fill:#000000;fill-opacity:1;fill-rule:nonzero;stroke:none;stroke-width:0.211667;stroke-miterlimit:4;stroke-dasharray:none;stroke-opacity:1;marker:none;enable-background:accumulate"
       d="m 90.77654,128.17519 c -0.4783,-2e-4 -0.8663,0.3876 -0.8663,0.8661 -1e-4,0.4786 0.3879,0.8665 0.8663,0.8663 0.4783,1e-4 0.8662,-0.3878 0.8661,-0.8663 0,-0.4784 -0.3878,-0.8662 -0.8661,-0.8661 z m -0.4335,2.1659 c -0.3492,0 -0.6634,0.1377 -0.8964,0.3608 0.8246,0.204 1.441,0.927 1.4868,1.8024 h 1.142 c 0.2398,0 0.4326,-0.1935 0.4326,-0.4335 v -0.1063 -0.3245 c 0,-0.72 -0.5791,-1.2987 -1.2989,-1.2987 z"
       id="path4100-7-3-6-4-4-6-8-7-8-3-4" />
    <path
       style="color:#bebebe;display:inline;overflow:visible;visibility:visible;fill:#000000;fill-opacity:1;fill-rule:nonzero;stroke:none;stroke-width:0.211667;stroke-miterlimit:4;stroke-dasharray:none;stroke-opacity:1;marker:none;enable-background:accumulate"
       d="m 88.44114,128.31139 a 1.0734705,1.0738015 0 0 0 -1.0734,1.0739 1.0734705,1.0738015 0 0 0 1.0734,1.0738 1.0734705,1.0738015 0 0 0 1.0735,-1.0738 1.0734705,1.0738015 0 0 0 -1.0735,-1.0739 z m -0.5366,2.6843 c -0.8923,0 -1.6106,0.7186 -1.6106,1.611 v 0.4027 0.1332 c 0,0.2975 0.2394,0.537 0.5371,0.537 h 3.2204 c 0.2973,0 0.5367,-0.2395 0.5367,-0.537 v -0.1332 -0.4027 c 0,-0.8924 -0.7183,-1.611 -1.6102,-1.611 z"
       id="path4100-7-3-6-4-5-8-1-0-3" />
    <path
       style="fill:#000000;fill-opacity:1;stroke:none;stroke-width:0.211667;stroke-miterlimit:4;stroke-dasharray:none;stroke-opacity:1"
       d="m 89.23354,124.66249 1.1224,1.1224 -2.0848,2.084 c 0.057,0 0.1123,-0.016 0.1711,-0.016 0.345,0 0.6613,0.1212 0.919,0.3164 l 1.6902,-1.6872 1.1224,1.1224 v -2.941 z m -3.2304,1.5541 -3.6319,3.6365 0.6908,0.6916 2.9411,-2.9412 1.0829,1.0831 c 0.1553,-0.2972 0.4014,-0.5378 0.7047,-0.6822 z"
       id="path590-3-1-6-4-6" />
  </g>
</svg>
