<?xml version="1.0" encoding="UTF-8" standalone="no"?>
<svg
   xmlns:dc="http://purl.org/dc/elements/1.1/"
   xmlns:cc="http://creativecommons.org/ns#"
   xmlns:rdf="http://www.w3.org/1999/02/22-rdf-syntax-ns#"
   xmlns:svg="http://www.w3.org/2000/svg"
   xmlns="http://www.w3.org/2000/svg"
   xmlns:sodipodi="http://sodipodi.sourceforge.net/DTD/sodipodi-0.dtd"
   xmlns:inkscape="http://www.inkscape.org/namespaces/inkscape"
   id="svg88859"
   version="1.1"
   viewBox="0 0 13.126434 12.973473"
   height="49.033596"
   width="49.611721"
   sodipodi:docname="nav_individual.svg"
   inkscape:version="1.0.2 (e86c870879, 2021-01-15, custom)">
  <sodipodi:namedview
     pagecolor="#e7e7e7"
     bordercolor="#666666"
     borderopacity="1"
     objecttolerance="10"
     gridtolerance="10"
     guidetolerance="10"
     inkscape:pageopacity="0"
     inkscape:pageshadow="2"
     inkscape:window-width="2400"
     inkscape:window-height="1271"
     id="namedview8"
     showgrid="false"
     inkscape:zoom="12.372932"
     inkscape:cx="4.7476624"
     inkscape:cy="20.283338"
     inkscape:window-x="-9"
     inkscape:window-y="-9"
     inkscape:window-maximized="1"
     inkscape:current-layer="svg88859" />
  <defs
     id="defs88853" />
  <metadata
     id="metadata88856">
    <rdf:RDF>
      <cc:Work
         rdf:about="">
        <dc:format>image/svg+xml</dc:format>
        <dc:type
           rdf:resource="http://purl.org/dc/dcmitype/StillImage" />
        <dc:title></dc:title>
      </cc:Work>
    </rdf:RDF>
  </metadata>
  <path
     id="path184-9-1-0-7-7-1"
     style="fill:#ffffff;fill-opacity:1;stroke:#ffffff;stroke-width:0.9525;stroke-miterlimit:4;stroke-dasharray:none;stroke-opacity:1"
     d="m 5.3679411,0.47625 c -2.7001999,0 -4.8916911,2.1913912 -4.8916911,4.8916911 0,2.7002 2.1914912,4.8916909 4.8916911,4.8916909 0.6307757,0 1.2316143,-0.123852 1.7854209,-0.3415808 v 1.9683558 c 0,0.335999 0.2743985,0.610815 0.6102987,0.610815 h 4.2762253 c 0.335899,0 0.610298,-0.274816 0.610298,-0.610815 V 7.6106985 c 0,-0.3359002 -0.274399,-0.6108155 -0.610298,-0.6108155 H 9.9743786 C 10.15569,6.4887683 10.259632,5.9409741 10.259632,5.3679411 10.259632,2.6676412 8.0680411,0.47625 5.3679411,0.47625 Z"
     sodipodi:nodetypes="ssscsssssscss" />
  <g
     transform="translate(-81.127176,-108.32868)"
     id="layer1">
    <path
       d="m 85.027426,113.57433 a 0.61155101,0.61155101 0 1 0 0,1.2231 0.61155101,0.61155101 0 0 0 0,-1.2231 z m 2.935,0 a 0.61155101,0.61155101 0 1 0 0,1.2231 0.61155101,0.61155101 0 0 0 0,-1.2231 z m -1.4673,-4.7694 c -2.7002,0 -4.8917,2.1916 -4.8917,4.8919 0,2.7002 2.1915,4.8915 4.8917,4.8915 2.7001,0 4.8916,-2.1913 4.8916,-4.8915 0,-2.7003 -2.1915,-4.8919 -4.8916,-4.8919 z m 0,8.8051 c -2.1575,0 -3.9135,-1.756 -3.9135,-3.9132 0,-0.1425 0.02,-0.2838 0.025,-0.4208 1.1544,-0.5136 2.0692,-1.4576 2.5484,-2.6268 a 4.8789212,4.8789212 0 0 0 5.0922,1.942 c 0.1038,0.3474 0.161,0.7189 0.161,1.1056 0,2.1572 -1.756,3.9132 -3.9132,3.9132 z"
       id="path184-9-1-0-7-7"
       style="stroke-width:0.264583" />
    <path
       d="m 93.166826,115.32863 h -4.2758 c -0.3359,0 -0.6107,0.2749 -0.6107,0.6108 v 4.2757 c 0,0.336 0.2748,0.6109 0.6107,0.6109 h 4.2758 c 0.3359,0 0.6107,-0.2749 0.6107,-0.6109 v -4.2757 c 0,-0.3359 -0.2748,-0.6108 -0.6107,-0.6108 z m -3.0542,4.2758 h -0.6108 v -2.138 h 0.6108 z m 1.2216,0 h -0.6107 v -3.054 h 0.6107 z m 1.2217,0 h -0.6108 v -1.2217 h 0.6108 z"
       id="path52-7-4-2-4-2"
       style="stroke-width:0.264583" />
  </g>
</svg>
